<svg width="940" height="940" viewBox="0 0 940 940" fill="none" xmlns="http://www.w3.org/2000/svg">
<g filter="url(#filter0_d_1080_32)">
<path d="M840 470C840 674.345 674.345 840 470 840C265.655 840 100 674.345 100 470C100 265.655 265.655 100 470 100C674.345 100 840 265.655 840 470Z" fill="#112827"/>
<path d="M840 470C840 674.345 674.345 840 470 840C265.655 840 100 674.345 100 470C100 265.655 265.655 100 470 100C674.345 100 840 265.655 840 470Z" fill="url(#paint0_radial_1080_32)"/>
<path d="M840 470C840 674.345 674.345 840 470 840C265.655 840 100 674.345 100 470C100 265.655 265.655 100 470 100C674.345 100 840 265.655 840 470Z" fill="url(#paint1_radial_1080_32)"/>
<path d="M840 470C840 674.345 674.345 840 470 840C265.655 840 100 674.345 100 470C100 265.655 265.655 100 470 100C674.345 100 840 265.655 840 470Z" fill="url(#paint2_radial_1080_32)"/>
<path d="M840 470C840 674.345 674.345 840 470 840C265.655 840 100 674.345 100 470C100 265.655 265.655 100 470 100C674.345 100 840 265.655 840 470Z" fill="url(#paint3_radial_1080_32)"/>
<path d="M840 470C840 674.345 674.345 840 470 840C265.655 840 100 674.345 100 470C100 265.655 265.655 100 470 100C674.345 100 840 265.655 840 470Z" fill="url(#paint4_radial_1080_32)"/>
<path d="M840 470C840 674.345 674.345 840 470 840C265.655 840 100 674.345 100 470C100 265.655 265.655 100 470 100C674.345 100 840 265.655 840 470Z" fill="url(#paint5_radial_1080_32)"/>
<path d="M840 470C840 674.345 674.345 840 470 840C265.655 840 100 674.345 100 470C100 265.655 265.655 100 470 100C674.345 100 840 265.655 840 470Z" fill="url(#paint6_radial_1080_32)"/>
<path d="M840 470C840 674.345 674.345 840 470 840C265.655 840 100 674.345 100 470C100 265.655 265.655 100 470 100C674.345 100 840 265.655 840 470Z" fill="url(#paint7_radial_1080_32)"/>
<path d="M840 470C840 674.345 674.345 840 470 840C265.655 840 100 674.345 100 470C100 265.655 265.655 100 470 100C674.345 100 840 265.655 840 470Z" fill="url(#paint8_radial_1080_32)"/>
<path d="M839.5 470C839.5 674.069 674.069 839.5 470 839.5C265.931 839.5 100.5 674.069 100.5 470C100.5 265.931 265.931 100.5 470 100.5C674.069 100.5 839.5 265.931 839.5 470Z" stroke="#C91818"/>
</g>
<defs>
<filter id="filter0_d_1080_32" x="0" y="0" width="940" height="940" filterUnits="userSpaceOnUse" color-interpolation-filters="sRGB">
<feFlood flood-opacity="0" result="BackgroundImageFix"/>
<feColorMatrix in="SourceAlpha" type="matrix" values="0 0 0 0 0 0 0 0 0 0 0 0 0 0 0 0 0 0 127 0" result="hardAlpha"/>
<feOffset/>
<feGaussianBlur stdDeviation="50"/>
<feComposite in2="hardAlpha" operator="out"/>
<feColorMatrix type="matrix" values="0 0 0 0 0.882353 0 0 0 0 0.117647 0 0 0 0 0.0980392 0 0 0 1 0"/>
<feBlend mode="normal" in2="BackgroundImageFix" result="effect1_dropShadow_1080_32"/>
<feBlend mode="normal" in="SourceGraphic" in2="effect1_dropShadow_1080_32" result="shape"/>
</filter>
<radialGradient id="paint0_radial_1080_32" cx="0" cy="0" r="1" gradientUnits="userSpaceOnUse" gradientTransform="translate(761.801 355.733) rotate(129.52) scale(335.938 328.684)">
<stop stop-color="#F0251E"/>
<stop offset="1" stop-color="#F0251E" stop-opacity="0"/>
</radialGradient>
<radialGradient id="paint1_radial_1080_32" cx="0" cy="0" r="1" gradientUnits="userSpaceOnUse" gradientTransform="translate(102.957 502.353) rotate(31.1909) scale(368.701 332.48)">
<stop stop-color="#FF0000"/>
<stop offset="1" stop-color="#FF0000" stop-opacity="0"/>
</radialGradient>
<radialGradient id="paint2_radial_1080_32" cx="0" cy="0" r="1" gradientUnits="userSpaceOnUse" gradientTransform="translate(590.081 785.365) rotate(147.899) scale(314.409 327.302)">
<stop stop-color="#FF0000"/>
<stop offset="1" stop-color="#FF0000" stop-opacity="0"/>
</radialGradient>
<radialGradient id="paint3_radial_1080_32" cx="0" cy="0" r="1" gradientUnits="userSpaceOnUse" gradientTransform="translate(449.901 383.011) rotate(89.2353) scale(262.576 353.721)">
<stop stop-color="#FF0000"/>
<stop offset="1" stop-color="#FF0000" stop-opacity="0"/>
</radialGradient>
<radialGradient id="paint4_radial_1080_32" cx="0" cy="0" r="1" gradientUnits="userSpaceOnUse" gradientTransform="translate(400.839 338.684) rotate(161.27) scale(244.23 232.55)">
<stop/>
<stop offset="1" stop-opacity="0"/>
</radialGradient>
<radialGradient id="paint5_radial_1080_32" cx="0" cy="0" r="1" gradientUnits="userSpaceOnUse" gradientTransform="translate(341.262 512.583) rotate(97.1441) scale(281.789 382.008)">
<stop/>
<stop offset="1" stop-opacity="0"/>
</radialGradient>
<radialGradient id="paint6_radial_1080_32" cx="0" cy="0" r="1" gradientUnits="userSpaceOnUse" gradientTransform="translate(470 470) rotate(90) scale(370)">
<stop stop-color="#600F0F"/>
<stop offset="1" stop-opacity="0"/>
</radialGradient>
<radialGradient id="paint7_radial_1080_32" cx="0" cy="0" r="1" gradientUnits="userSpaceOnUse" gradientTransform="translate(467.424 389.831) rotate(67.9175) scale(279.657 517.71)">
<stop stop-color="#600000"/>
<stop offset="1" stop-opacity="0"/>
</radialGradient>
<radialGradient id="paint8_radial_1080_32" cx="0" cy="0" r="1" gradientUnits="userSpaceOnUse" gradientTransform="translate(222.11 -179.601) rotate(85.4177) scale(745.714 745.461)">
<stop stop-color="#FF0000"/>
<stop offset="1" stop-color="#FF0000" stop-opacity="0"/>
</radialGradient>
</defs>
</svg>
